<svg width="53" height="40" viewBox="0 0 53 40" fill="none" xmlns="http://www.w3.org/2000/svg">
<path d="M40.0381 38.6106H6.15279C3.29853 38.6106 0.984253 36.2909 0.984253 33.4299V31.9826H51.5264V33.4299C51.5264 36.2909 49.2121 38.6106 46.3578 38.6106M43.5669 38.6106H42.56M7.89344 1H9.25826M6.00641 1H4.57039C3.85632 1 3.27874 1.57893 3.27874 2.29466V31.9846H49.1013V2.29466C49.1013 1.57893 48.5237 1 47.8097 1H11.3846M41.8361 28.8045H40.6374M44.0297 28.8045H45.618C46.162 28.8045 46.6031 28.3623 46.6031 27.8171V5.37766C46.6031 4.83243 46.162 4.3903 45.618 4.3903H6.81146C6.26751 4.3903 5.82642 4.83243 5.82642 5.37766V27.8171C5.82642 28.3623 6.26751 28.8045 6.81146 28.8045H38.2203M12.7297 7.53674H14.2607M16.205 7.53674H25.3514V16.5974H14.9035L10.8782 20.5726C10.8782 20.5726 10.4154 21.0147 10.3679 20.291L10.3521 16.5974H8.2831V7.53674H10.6686M22.8927 10.8101H10.7497M22.8927 13.2646H10.7497M35.6607 21.5143H37.7317L41.1715 25.083C41.8974 25.8345 41.7668 25.085 41.7668 25.085L41.7807 21.5143H43.82C44.0455 21.5143 44.2275 21.3319 44.2275 21.1059V15.3007C44.2275 15.0747 44.0455 14.8923 43.82 14.8923H28.9276C28.7021 14.8923 28.5201 15.0747 28.5201 15.3007V21.1059C28.5201 21.3319 28.7021 21.5143 28.9276 21.5143H30.4507M33.7935 21.5143H32.3654M41.4563 18.1696H31.0381" stroke="white" stroke-miterlimit="10" stroke-linecap="round" stroke-linejoin="round"/>
</svg>
