<svg width="47" height="40" viewBox="0 0 47 40" fill="none" xmlns="http://www.w3.org/2000/svg">
<path d="M22.5435 17.3093C23.9888 17.3093 25.1604 16.135 25.1604 14.6864C25.1604 13.2378 23.9888 12.0635 22.5435 12.0635C21.0983 12.0635 19.9268 13.2378 19.9268 14.6864C19.9268 16.135 21.0983 17.3093 22.5435 17.3093Z" stroke="white" stroke-miterlimit="10" stroke-linecap="round" stroke-linejoin="round"/>
<path d="M32.6774 27.4629C34.1226 27.4629 35.2942 26.2886 35.2942 24.84C35.2942 23.3914 34.1226 22.217 32.6774 22.217C31.2322 22.217 30.0606 23.3914 30.0606 24.84C30.0606 26.2886 31.2322 27.4629 32.6774 27.4629Z" stroke="white" stroke-miterlimit="10" stroke-linecap="round" stroke-linejoin="round"/>
<path d="M42.5699 18.8647C42.5699 21.0633 43.8783 22.9565 45.7595 23.7995V30.472C45.7595 31.6106 44.838 32.5342 43.7021 32.5342H3.05743C1.92144 32.5342 1 31.6106 1 30.472V23.8014C2.88118 22.9565 4.1915 21.0633 4.1915 18.8647C4.1915 16.6642 2.88118 14.771 1 13.9261V9.3408C1 8.20215 1.92144 7.27856 3.05743 7.27856H43.7021C44.838 7.27856 45.7595 8.20215 45.7595 9.3408V13.9261C43.8783 14.7729 42.5699 16.6642 42.5699 18.8647Z" stroke="white" stroke-miterlimit="10" stroke-linecap="round" stroke-linejoin="round"/>
<path d="M4.53822 6.87135L4.88112 7.27843M4.53822 6.87135C4.6589 7.00192 4.77384 7.13633 4.88112 7.27843M4.53822 6.87135L4.53246 6.86559C4.47116 6.80223 4.40987 6.73886 4.34665 6.67742L4.35431 6.65438L5.89643 2.36478C6.28147 1.29334 7.45961 0.736503 8.52855 1.12245L25.5799 7.27843H4.88112M21.1834 32.534L38.2309 38.6881C39.2998 39.074 40.478 38.5191 40.863 37.4477L42.6293 32.534H21.1834Z" stroke="white" stroke-miterlimit="10" stroke-linecap="round" stroke-linejoin="round"/>
<path d="M32.6774 14.6865L22.5493 24.8268" stroke="white" stroke-miterlimit="10" stroke-linecap="round" stroke-linejoin="round"/>
<path d="M4.53246 6.86551C4.47116 6.80215 4.40987 6.73878 4.34665 6.67734L4.35431 6.6543L4.53246 6.86551Z" stroke="white" stroke-miterlimit="10" stroke-linecap="round" stroke-linejoin="round"/>
<path d="M10.5745 7.80664V9.24675" stroke="white" stroke-linecap="round" stroke-linejoin="round"/>
<path d="M10.5745 12.3135V29.1819" stroke="white" stroke-linecap="round" stroke-linejoin="round" stroke-dasharray="15.97 15.97"/>
<path d="M10.5745 30.7139V32.154" stroke="white" stroke-linecap="round" stroke-linejoin="round"/>
</svg>
