<svg width="44" height="39" viewBox="0 0 44 39" fill="none" xmlns="http://www.w3.org/2000/svg">
<path d="M23.0109 20.0508H21.1097C15.8976 20.0508 11.6746 24.2856 11.6746 29.5079V38H32.4481V29.5079C32.446 24.2856 28.2211 20.0508 23.0109 20.0508Z" stroke="white" stroke-miterlimit="10" stroke-linecap="round" stroke-linejoin="round"/>
<path d="M6.93572 20.2605H5.42854C2.8123 20.2605 0.689667 22.3861 0.689667 25.0105V35.451H11.6746V25.0084C11.6746 22.3861 9.55196 20.2605 6.93572 20.2605Z" stroke="white" stroke-miterlimit="10" stroke-linecap="round" stroke-linejoin="round"/>
<path d="M38.6921 20.2605H37.1849C34.5687 20.2605 32.446 22.3861 32.446 25.0105V35.451H43.431V25.0084C43.431 22.3861 41.3104 20.2605 38.6921 20.2605Z" stroke="white" stroke-miterlimit="10" stroke-linecap="round" stroke-linejoin="round"/>
<path d="M6.35277 14.5679C8.42702 14.5679 10.1085 12.8825 10.1085 10.8034C10.1085 8.72426 8.42702 7.03882 6.35277 7.03882C4.27852 7.03882 2.59702 8.72426 2.59702 10.8034C2.59702 12.8825 4.27852 14.5679 6.35277 14.5679Z" stroke="white" stroke-miterlimit="10" stroke-linecap="round" stroke-linejoin="round"/>
<path d="M37.2764 14.5679C39.3506 14.5679 41.0321 12.8825 41.0321 10.8034C41.0321 8.72426 39.3506 7.03882 37.2764 7.03882C35.2021 7.03882 33.5206 8.72426 33.5206 10.8034C33.5206 12.8825 35.2021 14.5679 37.2764 14.5679Z" stroke="white" stroke-miterlimit="10" stroke-linecap="round" stroke-linejoin="round"/>
<path d="M21.8145 14.9709C25.6635 14.9709 28.7837 11.8434 28.7837 7.98547C28.7837 4.1275 25.6635 1 21.8145 1C17.9656 1 14.8453 4.1275 14.8453 7.98547C14.8453 11.8434 17.9656 14.9709 21.8145 14.9709Z" stroke="white" stroke-miterlimit="10" stroke-linecap="round" stroke-linejoin="round"/>
</svg>
