<svg width="58" height="35" viewBox="0 0 58 35" fill="none" xmlns="http://www.w3.org/2000/svg">
<path d="M48.0476 28.6262L46.089 10.967H12.3627L10.4041 28.6262" stroke="white" stroke-miterlimit="10" stroke-linecap="round" stroke-linejoin="round"/>
<path d="M10.8554 28.6265C13.9174 28.6265 13.9174 30.8881 16.9793 30.8881C20.0412 30.8881 20.0412 28.6265 23.1032 28.6265C26.1651 28.6265 26.1651 30.8881 29.227 30.8881C32.2889 30.8881 32.2889 28.6265 35.3509 28.6265C38.4128 28.6265 38.4128 30.8881 41.4747 30.8881C44.5367 30.8881 44.5367 28.6265 47.5986 28.6265" stroke="white" stroke-miterlimit="10" stroke-linecap="round" stroke-linejoin="round"/>
<path d="M20.1586 10.9674H15.9436L15.0411 7.19263H21.0611L20.1586 10.9674ZM32.2371 7.19263H26.2147L27.1173 10.9674H31.3323L32.2371 7.19263ZM43.4107 7.19263H37.3907L38.2932 10.9674H42.5082L43.4107 7.19263Z" stroke="white" stroke-miterlimit="10" stroke-linecap="round" stroke-linejoin="round"/>
<path d="M29.2541 6.50043C30.7557 6.50043 31.973 5.28026 31.973 3.77511C31.973 2.26997 30.7557 1.0498 29.2541 1.0498C27.7524 1.0498 26.5351 2.26997 26.5351 3.77511C26.5351 5.28026 27.7524 6.50043 29.2541 6.50043Z" stroke="white" stroke-miterlimit="10" stroke-linecap="round" stroke-linejoin="round"/>
<path d="M5.83272 14.3528L5.00237 9.53999C5.00237 9.53999 4.59848 7.98397 2.89941 8.25763C1.20034 8.53129 1.49819 10.1484 1.49819 10.1484L3.23787 19.6881C3.23787 19.6881 3.47254 21.7688 5.70411 21.8209H11.1804" stroke="white" stroke-miterlimit="10" stroke-linecap="round" stroke-linejoin="round"/>
<path d="M4.32098 21.4297L3.33945 32.4169" stroke="white" stroke-miterlimit="10" stroke-linecap="round" stroke-linejoin="round"/>
<path d="M11.5685 18.1367H6.724" stroke="white" stroke-miterlimit="10" stroke-linecap="round" stroke-linejoin="round"/>
<path d="M52.8018 14.3528L53.6322 9.53999C53.6322 9.53999 54.0361 7.98397 55.7352 8.25763C57.4342 8.53129 57.1364 10.1484 57.1364 10.1484L55.3967 19.6881C55.3967 19.6881 55.162 21.7688 52.9305 21.8209H47.4542" stroke="white" stroke-miterlimit="10" stroke-linecap="round" stroke-linejoin="round"/>
<path d="M54.3159 21.4297L55.2952 32.4169" stroke="white" stroke-miterlimit="10" stroke-linecap="round" stroke-linejoin="round"/>
<path d="M47.0684 18.1367H51.9106" stroke="white" stroke-miterlimit="10" stroke-linecap="round" stroke-linejoin="round"/>
<path d="M14.574 30.8606L15.0411 33.9998" stroke="white" stroke-miterlimit="10" stroke-linecap="round" stroke-linejoin="round"/>
<path d="M43.8778 30.8606L43.4107 33.9998" stroke="white" stroke-miterlimit="10" stroke-linecap="round" stroke-linejoin="round"/>
<path d="M29.2248 31.5396V34.0002" stroke="white" stroke-miterlimit="10" stroke-linecap="round" stroke-linejoin="round"/>
<path d="M34.3829 34H24.0689" stroke="white" stroke-miterlimit="10" stroke-linecap="round" stroke-linejoin="round"/>
</svg>
