<svg width="35" height="45" viewBox="0 0 35 45" fill="none" xmlns="http://www.w3.org/2000/svg">
<path d="M9.66234 1H31.2439C32.5668 1 33.638 2.07374 33.638 3.3997V30.766M7.10202 1H3.08032C1.75744 1 0.686188 2.07374 0.686188 3.3997V41.3274C0.686188 42.6534 1.75744 43.7271 3.08032 43.7271H31.2462C32.5691 43.7271 33.6403 42.6534 33.6403 41.3274V33.4596" stroke="white" stroke-miterlimit="10" stroke-linecap="round" stroke-linejoin="round"/>
<path d="M4.12842 8.27553V4.70723C4.12842 4.52211 4.16999 4.38326 4.25541 4.29069C4.34083 4.19813 4.44932 4.15186 4.58322 4.15186C4.72174 4.15186 4.83258 4.19814 4.918 4.28839C5.00342 4.38095 5.04496 4.51979 5.04496 4.70723V8.27553C5.04496 8.46297 5.00342 8.60414 4.918 8.6967C4.83258 8.78926 4.72174 8.83554 4.58322 8.83554C4.45163 8.83554 4.34314 8.78926 4.25772 8.69438C4.1723 8.60182 4.12842 8.46066 4.12842 8.27553Z" stroke="white" stroke-miterlimit="10" stroke-linecap="round" stroke-linejoin="round"/>
<path d="M7.26129 4.70249L9.0205 7.37293V4.67935C9.0205 4.50348 9.05744 4.37389 9.13362 4.28596C9.2075 4.19802 9.30907 4.15405 9.43605 4.15405C9.56764 4.15405 9.67153 4.19802 9.74771 4.28596C9.8239 4.37389 9.86086 4.5058 9.86086 4.67935V8.24071C9.86086 8.63873 9.69694 8.83775 9.3668 8.83775C9.28369 8.83775 9.20979 8.82617 9.14515 8.80303C9.08051 8.77989 9.01819 8.74287 8.96047 8.68964C8.90276 8.63873 8.84964 8.57857 8.80116 8.50915C8.75268 8.43972 8.70188 8.3703 8.6534 8.29856L6.93576 5.66052V8.31476C6.93576 8.48832 6.8965 8.61791 6.8157 8.70816C6.7349 8.7961 6.63332 8.84006 6.50635 8.84006C6.37706 8.84006 6.27317 8.79609 6.19468 8.70584C6.11618 8.6156 6.07693 8.48601 6.07693 8.31476V4.82051C6.07693 4.67241 6.09309 4.5567 6.12541 4.47108C6.16466 4.37852 6.22929 4.30216 6.31933 4.24431C6.40937 4.18645 6.50634 4.15637 6.61254 4.15637C6.69565 4.15637 6.76492 4.17026 6.82263 4.19571C6.88035 4.22348 6.93343 4.25818 6.9773 4.30447C7.02116 4.35075 7.06736 4.4086 7.11353 4.48034C7.16432 4.54745 7.2105 4.62381 7.26129 4.70249Z" stroke="white" stroke-miterlimit="10" stroke-linecap="round" stroke-linejoin="round"/>
<path d="M11.5324 4.75363L12.5551 7.7897L13.5825 4.73049C13.6356 4.57082 13.6748 4.45743 13.7025 4.39495C13.7302 4.33247 13.7741 4.27462 13.8341 4.22602C13.8964 4.17511 13.9795 4.14966 14.0857 4.14966C14.1642 4.14966 14.2358 4.16817 14.3028 4.20751C14.3697 4.24685 14.4228 4.29776 14.4597 4.36255C14.4967 4.42734 14.5175 4.49214 14.5175 4.55925C14.5175 4.60553 14.5105 4.65413 14.499 4.70504C14.4875 4.75594 14.4713 4.80917 14.4528 4.86008C14.4343 4.91099 14.4159 4.9619 14.3974 5.01512L13.3031 7.97483C13.2638 8.08822 13.2246 8.19466 13.1853 8.2988C13.1461 8.40293 13.0999 8.49087 13.0491 8.56723C12.9984 8.64359 12.9291 8.70839 12.8437 8.75699C12.7582 8.80558 12.6544 8.83104 12.5297 8.83104C12.4073 8.83104 12.3011 8.80789 12.218 8.75929C12.1326 8.7107 12.0633 8.64822 12.0125 8.56723C11.9594 8.48855 11.9133 8.3983 11.8763 8.29648C11.8371 8.19466 11.7978 8.08822 11.7586 7.97483L10.6827 5.04058C10.6643 4.98736 10.6458 4.93413 10.625 4.88322C10.6066 4.83231 10.5881 4.77678 10.5766 4.71661C10.5627 4.65644 10.5558 4.60553 10.5558 4.56619C10.5558 4.46206 10.5973 4.36487 10.6827 4.27925C10.7659 4.19363 10.8721 4.14966 11.0013 4.14966C11.1583 4.14966 11.2669 4.19825 11.3315 4.29313C11.3984 4.39032 11.4654 4.54305 11.5324 4.75363Z" stroke="white" stroke-miterlimit="10" stroke-linecap="round" stroke-linejoin="round"/>
<path d="M17.1124 4.15186C17.5811 4.15186 17.9828 4.24673 18.3198 4.4388C18.6569 4.63087 18.9109 4.8993 19.0817 5.25104C19.2549 5.60278 19.3403 6.01468 19.3403 6.48907C19.3403 6.83849 19.2918 7.15784 19.1995 7.44478C19.1071 7.73173 18.964 7.97933 18.7747 8.18991C18.5854 8.4005 18.3522 8.56017 18.0774 8.67125C17.8027 8.78232 17.4864 8.83786 17.1309 8.83786C16.7777 8.83786 16.4614 8.78 16.182 8.66661C15.9027 8.55322 15.6695 8.39124 15.4825 8.18297C15.2955 7.97471 15.1546 7.72479 15.06 7.43321C14.9653 7.14164 14.9168 6.82461 14.9168 6.48444C14.9168 6.13733 14.9676 5.81799 15.0669 5.52642C15.1662 5.23484 15.3116 4.98955 15.5009 4.78591C15.6903 4.58227 15.9211 4.42492 16.1912 4.31847C16.4614 4.21202 16.7661 4.15186 17.1124 4.15186ZM18.4122 6.48213C18.4122 6.15121 18.3591 5.86427 18.2529 5.61898C18.1467 5.376 17.9943 5.19319 17.7958 5.06823C17.5972 4.94327 17.371 4.88079 17.1124 4.88079C16.93 4.88079 16.7615 4.9155 16.6045 4.98492C16.4498 5.05434 16.3159 5.15385 16.2028 5.28575C16.0897 5.41765 16.0019 5.58658 15.9373 5.79022C15.8726 5.99617 15.8403 6.22527 15.8403 6.47982C15.8403 6.73668 15.8726 6.9704 15.9373 7.17866C16.0019 7.38693 16.0943 7.55817 16.212 7.69702C16.3297 7.83586 16.466 7.93537 16.6183 8.00479C16.7707 8.0719 16.9393 8.10661 17.1216 8.10661C17.3548 8.10661 17.5718 8.04876 17.7681 7.93074C17.9643 7.81272 18.1213 7.63222 18.2367 7.38693C18.3545 7.14164 18.4122 6.83849 18.4122 6.48213Z" stroke="white" stroke-miterlimit="10" stroke-linecap="round" stroke-linejoin="round"/>
<path d="M20.1599 8.27553V4.70723C20.1599 4.52211 20.2014 4.38326 20.2868 4.29069C20.3723 4.19813 20.4808 4.15186 20.6147 4.15186C20.7532 4.15186 20.864 4.19814 20.9494 4.28839C21.0349 4.38095 21.0764 4.51979 21.0764 4.70723V8.27553C21.0764 8.46297 21.0349 8.60414 20.9494 8.6967C20.864 8.78926 20.7532 8.83554 20.6147 8.83554C20.4831 8.83554 20.3746 8.78926 20.2892 8.69438C20.2037 8.60182 20.1599 8.46066 20.1599 8.27553Z" stroke="white" stroke-miterlimit="10" stroke-linecap="round" stroke-linejoin="round"/>
<path d="M25.9501 7.32677C25.9501 7.47024 25.9155 7.6276 25.8439 7.79421C25.7723 7.96314 25.6615 8.12743 25.5091 8.28942C25.3568 8.4514 25.1628 8.58331 24.9273 8.68281C24.6918 8.78232 24.4148 8.83323 24.1008 8.83323C23.863 8.83323 23.646 8.81009 23.4498 8.76612C23.2536 8.71984 23.0781 8.65042 22.9188 8.55554C22.7595 8.46067 22.614 8.33339 22.4801 8.17603C22.3601 8.03487 22.2585 7.8752 22.1754 7.69933C22.09 7.52346 22.0276 7.33602 21.9861 7.1347C21.9445 6.93569 21.9238 6.72279 21.9238 6.49833C21.9238 6.1327 21.9769 5.80641 22.0831 5.51947C22.1893 5.23021 22.3393 4.98492 22.5379 4.77897C22.7364 4.57302 22.9673 4.41797 23.2305 4.31153C23.496 4.20508 23.7776 4.15186 24.0778 4.15186C24.4425 4.15186 24.7704 4.2259 25.0543 4.37169C25.3383 4.51748 25.5576 4.69797 25.71 4.91318C25.8624 5.12839 25.9385 5.33203 25.9385 5.5241C25.9385 5.62823 25.9016 5.72079 25.8277 5.80179C25.7538 5.88278 25.6638 5.92212 25.5599 5.92212C25.4422 5.92212 25.3545 5.89435 25.2967 5.83881C25.239 5.78327 25.1721 5.6884 25.1005 5.55187C24.9804 5.3274 24.8419 5.15848 24.6803 5.0474C24.5187 4.93633 24.3202 4.88079 24.0847 4.88079C23.7084 4.88079 23.4082 5.02426 23.1866 5.3112C22.9627 5.59815 22.8518 6.00543 22.8518 6.53073C22.8518 6.88247 22.9003 7.17635 22.9996 7.41007C23.0989 7.64379 23.2374 7.81735 23.4198 7.93306C23.5999 8.04876 23.8123 8.10661 24.0547 8.10661C24.3179 8.10661 24.5395 8.04182 24.7219 7.90991C24.9043 7.78033 25.0405 7.58594 25.1328 7.33371C25.1721 7.21338 25.2205 7.11619 25.2783 7.04213C25.336 6.96808 25.4283 6.92875 25.5553 6.92875C25.6638 6.92875 25.7585 6.96577 25.8347 7.04213C25.9108 7.1185 25.9501 7.21338 25.9501 7.32677Z" stroke="white" stroke-miterlimit="10" stroke-linecap="round" stroke-linejoin="round"/>
<path d="M29.7501 4.93601H27.6885V6.04908H29.5862C29.7247 6.04908 29.8309 6.08148 29.8979 6.14396C29.9671 6.20644 30.0018 6.28975 30.0018 6.39157C30.0018 6.4957 29.9671 6.579 29.9002 6.6438C29.8332 6.70859 29.727 6.74099 29.5862 6.74099H27.6885V8.02993H29.8217C29.9648 8.02993 30.0734 8.06464 30.1472 8.12944C30.2211 8.19655 30.2557 8.28448 30.2557 8.39556C30.2557 8.502 30.2188 8.58994 30.1472 8.65705C30.0734 8.72416 29.9648 8.75655 29.8217 8.75655H27.3353C27.1367 8.75655 26.9936 8.71258 26.9058 8.62465C26.8181 8.53671 26.7742 8.39324 26.7742 8.19423V4.79022C26.7742 4.65832 26.7927 4.55187 26.8319 4.46625C26.8712 4.38063 26.9312 4.32278 27.0143 4.28344C27.0975 4.2441 27.2037 4.22559 27.3329 4.22559H29.7501C29.8956 4.22559 30.0041 4.25799 30.0757 4.32278C30.1472 4.38757 30.1818 4.4732 30.1818 4.57733C30.1818 4.68378 30.1472 4.7694 30.0757 4.83419C30.0041 4.90361 29.8956 4.93601 29.7501 4.93601Z" stroke="white" stroke-miterlimit="10" stroke-linecap="round" stroke-linejoin="round"/>
<path d="M22.2331 12.0474H29.8979" stroke="white" stroke-miterlimit="10" stroke-linecap="round" stroke-linejoin="round"/>
<path d="M26.5872 14.8843H29.8979" stroke="white" stroke-miterlimit="10" stroke-linecap="round" stroke-linejoin="round"/>
<path d="M12.4304 33.3925H6.45326C5.84146 33.3925 5.34277 32.895 5.34277 32.2795V19.7696C5.34277 19.1563 5.83915 18.6565 6.45326 18.6565H22.5978H27.6215C28.2333 18.6565 28.732 19.154 28.732 19.7696V32.2795C28.732 32.8927 28.2356 33.3925 27.6215 33.3925H15.0254" stroke="white" stroke-miterlimit="10" stroke-linecap="round" stroke-linejoin="round"/>
<path d="M22.8287 18.6565V33.3925" stroke="white" stroke-miterlimit="10" stroke-linecap="round" stroke-linejoin="round"/>
<path d="M28.732 23.2869H5.34509" stroke="white" stroke-miterlimit="10" stroke-linecap="round" stroke-linejoin="round"/>
<path d="M28.732 28.6255H5.34509" stroke="white" stroke-miterlimit="10" stroke-linecap="round" stroke-linejoin="round"/>
<path d="M29.0321 40.0178C27.887 40.0178 27.8871 38.1665 26.7419 38.1665C25.5968 38.1665 25.5968 40.0178 24.454 40.0178C23.3089 40.0178 23.3089 38.1665 22.1638 38.1665C21.0187 38.1665 21.0187 40.0178 19.8736 40.0178" stroke="white" stroke-miterlimit="10" stroke-linecap="round" stroke-linejoin="round"/>
</svg>
