<svg width="35" height="35" viewBox="0 0 35 35" fill="none" xmlns="http://www.w3.org/2000/svg">
<path d="M26.4344 17.5793H24.3838" stroke="white" stroke-miterlimit="10" stroke-linecap="round" stroke-linejoin="round"/>
<path d="M19.9306 17.5793H8.39758" stroke="white" stroke-miterlimit="10" stroke-linecap="round" stroke-linejoin="round"/>
<path d="M24.2178 18.4312C24.6884 17.2924 24.1489 15.9868 23.0127 15.5151C21.8766 15.0434 20.5741 15.5842 20.1035 16.723C19.6328 17.8617 20.1724 19.1673 21.3085 19.639C22.4446 20.1107 23.7471 19.57 24.2178 18.4312Z" stroke="white" stroke-miterlimit="10" stroke-linecap="round" stroke-linejoin="round"/>
<path d="M10.4482 11.3352H8.39758" stroke="white" stroke-miterlimit="10" stroke-linecap="round" stroke-linejoin="round"/>
<path d="M26.4344 11.3352H14.9013" stroke="white" stroke-miterlimit="10" stroke-linecap="round" stroke-linejoin="round"/>
<path d="M13.5305 13.3957C14.6667 12.9239 15.2062 11.6184 14.7356 10.4796C14.265 9.34081 12.9624 8.80004 11.8263 9.27175C10.6902 9.74346 10.1507 11.049 10.6213 12.1878C11.0919 13.3266 12.3944 13.8674 13.5305 13.3957Z" stroke="white" stroke-miterlimit="10" stroke-linecap="round" stroke-linejoin="round"/>
<path d="M10.4482 23.7272H8.39758" stroke="white" stroke-miterlimit="10" stroke-linecap="round" stroke-linejoin="round"/>
<path d="M26.4344 23.7272H14.9013" stroke="white" stroke-miterlimit="10" stroke-linecap="round" stroke-linejoin="round"/>
<path d="M13.5305 25.7879C14.6666 25.3162 15.2062 24.0106 14.7355 22.8718C14.2649 21.733 12.9624 21.1922 11.8263 21.664C10.6901 22.1357 10.1506 23.4412 10.6213 24.58C11.0919 25.7188 12.3944 26.2596 13.5305 25.7879Z" stroke="white" stroke-miterlimit="10" stroke-linecap="round" stroke-linejoin="round"/>
<path d="M17.4011 33.8789C26.4592 33.8789 33.8022 26.5187 33.8022 17.4394C33.8022 8.36019 26.4592 1 17.4011 1C8.34303 1 1 8.36019 1 17.4394C1 26.5187 8.34303 33.8789 17.4011 33.8789Z" stroke="white" stroke-miterlimit="10" stroke-linecap="round" stroke-linejoin="round"/>
</svg>
