<svg width="39" height="34" viewBox="0 0 39 34" fill="none" xmlns="http://www.w3.org/2000/svg">
<path d="M1.00001 30.4393C0.996307 32.0271 2.28244 33.3218 3.85358 33.3107C5.40066 33.3014 6.69423 31.9955 6.68868 30.4467C6.68498 28.8867 5.40067 27.6068 3.84064 27.605C2.26765 27.6068 1.00186 28.8682 1.00001 30.4393Z" stroke="white" stroke-miterlimit="10" stroke-linecap="round" stroke-linejoin="round"/>
<path d="M3.84249 6.70395C5.40253 6.70209 6.68683 5.4185 6.68868 3.86038C6.69238 2.29485 5.37291 0.985286 3.81102 1.00012C2.25469 1.01496 0.996307 2.30041 1.00001 3.87337C1.00371 5.44261 2.27135 6.70766 3.84249 6.70395Z" stroke="white" stroke-miterlimit="10" stroke-linecap="round" stroke-linejoin="round"/>
<path d="M6.68868 17.1563C6.69053 15.5981 5.41549 14.3201 3.8499 14.3108C2.2584 14.3016 0.996307 15.5685 1.00001 17.1711C1.00371 18.7441 2.2695 20.0017 3.84434 19.9998C5.40253 19.9961 6.68683 18.7144 6.68868 17.1563Z" stroke="white" stroke-miterlimit="10" stroke-linecap="round" stroke-linejoin="round"/>
<path d="M9.68103 3.8512H38.154" stroke="white" stroke-miterlimit="10" stroke-linecap="round" stroke-linejoin="round"/>
<path d="M9.68103 17.1562H38.154" stroke="white" stroke-miterlimit="10" stroke-linecap="round" stroke-linejoin="round"/>
<path d="M9.68103 30.4597H38.154" stroke="white" stroke-miterlimit="10" stroke-linecap="round" stroke-linejoin="round"/>
</svg>
