<svg width="42" height="43" viewBox="0 0 42 43" fill="none" xmlns="http://www.w3.org/2000/svg">
<path d="M17.4521 31.3806C17.3686 31.4487 17.2774 31.5129 17.1997 31.5888C16.9648 31.8184 16.7591 32.083 16.4989 32.2776C16.0505 32.6103 15.9904 32.9508 16.2777 33.4353C16.5184 33.8381 16.2815 34.556 15.8448 34.6553C15.1323 34.8168 15.0062 35.2468 15.0916 35.8616C15.1071 35.9745 15.1129 36.0951 15.0897 36.206C14.9712 36.7878 15.1945 37.1069 15.7768 37.2528C16.2097 37.3618 16.5436 38.0797 16.3087 38.4339C15.9302 39.004 16.101 39.3834 16.5805 39.7433C16.7241 39.8504 16.8581 39.9807 16.9609 40.1267C17.2618 40.5508 17.5841 40.5878 18.0344 40.3212C18.4945 40.0508 19.1758 40.2901 19.3078 40.7979C19.4728 41.4264 19.83 41.5859 20.4027 41.4964C20.5463 41.4731 20.7016 41.4692 20.8433 41.4964C21.4315 41.6112 21.7363 41.3719 21.878 40.794C21.975 40.3971 22.7127 40.0333 23.0194 40.2531C23.66 40.7143 24.0521 40.4107 24.4384 39.9223C24.5199 39.8192 24.6112 39.72 24.716 39.6441C25.1411 39.3367 25.2168 39.004 24.9295 38.5312C24.6752 38.1089 24.9179 37.391 25.376 37.2781C26.0554 37.1127 26.1991 36.71 26.1059 36.1048C26.0884 35.992 26.0865 35.8733 26.1059 35.7604C26.2049 35.1748 26.0302 34.8129 25.3954 34.6786C24.9994 34.595 24.6558 33.8497 24.8732 33.5287C25.2867 32.9177 25.0557 32.5208 24.5607 32.1453C24.4442 32.0577 24.3336 31.9507 24.2501 31.832C23.9395 31.3923 23.5959 31.3534 23.1378 31.6316C22.7651 31.8573 22.0177 31.6472 21.9401 31.2561C21.7732 30.4136 21.2257 30.3825 20.5716 30.4467C20.393 30.4642 20.2086 30.47 20.0319 30.4447C19.7019 30.4 19.5388 30.5264 19.4282 30.8475C19.1254 31.727 18.6478 31.9099 17.7879 31.5227C17.6889 31.4779 17.5821 31.4351 17.4521 31.3806Z" stroke="white" stroke-miterlimit="10" stroke-linecap="round" stroke-linejoin="round"/>
<path d="M5.81269 34.525C8.72448 34.525 11.085 32.159 11.085 29.2404C11.085 26.3218 8.72448 23.9558 5.81269 23.9558C2.9009 23.9558 0.540436 26.3218 0.540436 29.2404C0.540436 32.159 2.9009 34.525 5.81269 34.525Z" stroke="white" stroke-miterlimit="10" stroke-linecap="round" stroke-linejoin="round"/>
<path d="M34.0453 34.525C37.699 34.525 40.6609 31.5562 40.6609 27.894C40.6609 24.2317 37.699 21.2629 34.0453 21.2629C30.3916 21.2629 27.4297 24.2317 27.4297 27.894C27.4297 31.5562 30.3916 34.525 34.0453 34.525Z" stroke="white" stroke-miterlimit="10" stroke-linecap="round" stroke-linejoin="round"/>
<path d="M20.6104 16.2898C23.2213 16.2898 25.3391 18.4126 25.3391 21.0296C25.3391 23.6466 23.2213 25.7694 20.6104 25.7694C17.9995 25.7694 15.8816 23.6466 15.8816 21.0296C15.8797 18.4126 17.9975 16.2898 20.6104 16.2898ZM18.5935 21.0296C18.5935 22.1464 19.4961 23.0512 20.6104 23.0512C21.7246 23.0512 22.6272 22.1464 22.6272 21.0296C22.6272 19.9127 21.7246 19.008 20.6104 19.008C19.4961 19.0099 18.5935 19.9147 18.5935 21.0296Z" stroke="white" stroke-miterlimit="10" stroke-linecap="round" stroke-linejoin="round"/>
<path d="M18.5818 35.9767C18.5818 37.0935 19.4845 37.9983 20.5987 37.9983C21.713 37.9983 22.6156 37.0935 22.6156 35.9767C22.6156 34.8598 21.713 33.9551 20.5987 33.9551C19.4845 33.9551 18.5818 34.8598 18.5818 35.9767Z" stroke="white" stroke-miterlimit="10" stroke-linecap="round" stroke-linejoin="round"/>
<path d="M19.731 3.65231H21.4179M19.731 6.35297H21.4179M23.9764 9.04196H17.256V1.01001H23.9764V9.04196Z" stroke="white" stroke-miterlimit="10" stroke-linecap="round" stroke-linejoin="round"/>
<path d="M8.18479 28.6063L4.29853 26.5847C3.82488 26.3376 3.25806 26.682 3.25806 27.219V31.2642C3.25806 31.7992 3.82488 32.1456 4.29853 31.8985L8.18479 29.8768C8.69726 29.6064 8.69726 28.8729 8.18479 28.6063Z" stroke="white" stroke-miterlimit="10" stroke-linecap="round" stroke-linejoin="round"/>
<path d="M33.6998 32.6689V31.5287C33.0437 31.517 32.3662 31.3108 31.9663 31.0286L32.242 30.262C32.6477 30.5344 33.2398 30.7562 33.8687 30.7562C34.6782 30.7562 35.2198 30.2892 35.2198 29.6433C35.2198 29.0167 34.7811 28.6334 33.9405 28.291C32.7855 27.8357 32.0634 27.3045 32.0634 26.3161C32.0634 25.3724 32.7331 24.6564 33.7755 24.4852V23.343H34.486V24.4482C35.1615 24.4676 35.6274 24.6544 35.9516 24.8451L35.6779 25.5962C35.4372 25.46 34.9655 25.2012 34.2453 25.2012C33.3737 25.2012 33.0437 25.7265 33.0437 26.1857C33.0437 26.7675 33.461 27.0671 34.4472 27.4816C35.6138 27.9602 36.2039 28.5439 36.2039 29.5538C36.2039 30.4605 35.5808 31.2952 34.4103 31.4878V32.6689H33.6998Z" stroke="white" stroke-miterlimit="10" stroke-linecap="round" stroke-linejoin="round"/>
<path d="M36.037 12.4255H32.8515C32.506 12.4255 32.2381 12.1258 32.2381 12.1258C31.0423 11.0051 29.5146 10.2015 29.5146 10.2015C28.8061 9.80651 27.09 9.287 26.43 10.4544C25.77 11.6219 26.43 12.443 27.1541 12.8691C27.8782 13.2952 30.095 14.6903 30.095 14.6903C30.095 14.6903 34.1191 17.3695 36.3941 16.1476C38.6673 14.9257 40.6628 15.0288 40.6628 15.0288V9.82402H40.0708C40.0708 9.82402 39.4767 9.96995 38.8226 9.3765L37.2153 8.0612C37.2153 8.0612 35.144 6.24195 32.1022 5.70687C32.1022 5.70687 29.3438 5.31189 27.6879 6.99299L24.4403 10.2482C24.4403 10.2482 22.4428 11.8087 24.4403 13.6513" stroke="white" stroke-miterlimit="10" stroke-linecap="round" stroke-linejoin="round"/>
<path d="M26.3718 12.1318L23.9764 14.5757L23.6173 15.2567L21.9304 18.4574C21.9304 18.4574 21.482 19.4653 21.9304 19.8291C21.9304 19.8291 22.2565 20.2552 23.3571 19.7649L27.3308 17.7511L30.26 14.7936" stroke="white" stroke-miterlimit="10" stroke-linecap="round" stroke-linejoin="round"/>
<path d="M32.6418 12.3905L40.0669 4.8936C40.0669 4.8936 41.5247 3.38178 40.1581 1.81547C40.0805 1.72791 38.3198 0.0215096 36.4776 1.8213L28.61 9.84936" stroke="white" stroke-miterlimit="10" stroke-linecap="round" stroke-linejoin="round"/>
<path d="M23.6172 15.2566L26.5407 18.1538" stroke="white" stroke-miterlimit="10" stroke-linecap="round" stroke-linejoin="round"/>
<path d="M20.6162 9.04199V16.2898" stroke="white" stroke-miterlimit="10" stroke-linecap="round" stroke-linejoin="round"/>
<path d="M7.90335 15.7682H3.98215M5.83211 10.4292C5.01293 10.4292 4.34904 9.76374 4.34904 8.94265C4.34904 8.12155 5.01293 7.45611 5.83211 7.45611C6.65129 7.45611 7.31517 8.12155 7.31517 8.94265C7.31517 9.76374 6.65129 10.4292 5.83211 10.4292ZM5.83211 10.4292V15.7682M11.3858 8.71694C11.5081 10.8164 10.4463 12.6784 8.80794 13.6922C8.23529 14.0463 7.90335 14.6884 7.90335 15.3635V16.4337C7.90335 17.4766 7.11717 18.3833 6.07863 18.4533C5.48269 18.4942 4.9411 18.2685 4.55675 17.8813C4.20151 17.5252 3.98215 17.0349 3.98215 16.4921V15.3285C3.98215 14.6514 3.62303 14.0346 3.05038 13.6746C1.51297 12.7096 0.48996 10.9954 0.48996 9.04188C0.48996 5.99293 2.97856 3.52964 6.0301 3.57634C8.85647 3.62109 11.2228 5.88786 11.3858 8.71694Z" stroke="white" stroke-miterlimit="10" stroke-linecap="round" stroke-linejoin="round"/>
<path d="M10.0231 12.6667L16.7299 18.321" stroke="white" stroke-miterlimit="10" stroke-linecap="round" stroke-linejoin="round"/>
<path d="M10.4075 26.6467L16.495 23.3682" stroke="white" stroke-miterlimit="10" stroke-linecap="round" stroke-linejoin="round"/>
<path d="M20.5754 30.4488V26.0417" stroke="white" stroke-miterlimit="10" stroke-linecap="round" stroke-linejoin="round"/>
<path d="M28.0878 25.0084L24.7238 23.3682" stroke="white" stroke-miterlimit="10" stroke-linecap="round" stroke-linejoin="round"/>
</svg>
