<svg width="46" height="44" viewBox="0 0 46 44" fill="none" xmlns="http://www.w3.org/2000/svg">
<path d="M44.8778 43.4968H1M8.42636 43.4968H2.93305V33.9249H8.42636V43.4968ZM18.1484 27.0471H12.6551V43.4968H18.1484V27.0471ZM27.8705 21.5449H22.3772V43.4968H27.8705V21.5449ZM37.5907 24.296H32.0974V43.4968H37.5907V24.296Z" stroke="white" stroke-miterlimit="10" stroke-linecap="round" stroke-linejoin="round"/>
<path d="M40.798 40.8066H44.8778" stroke="white" stroke-miterlimit="10" stroke-linecap="round" stroke-linejoin="round"/>
<path d="M40.798 38.0554H44.8778" stroke="white" stroke-miterlimit="10" stroke-linecap="round" stroke-linejoin="round"/>
<path d="M40.798 35.3044H44.8778" stroke="white" stroke-miterlimit="10" stroke-linecap="round" stroke-linejoin="round"/>
<path d="M40.798 32.5532H44.8778" stroke="white" stroke-miterlimit="10" stroke-linecap="round" stroke-linejoin="round"/>
<path d="M40.798 29.8022H44.8778" stroke="white" stroke-miterlimit="10" stroke-linecap="round" stroke-linejoin="round"/>
<path d="M40.798 27.051H44.8778" stroke="white" stroke-miterlimit="10" stroke-linecap="round" stroke-linejoin="round"/>
<path d="M40.798 24.2998H44.8778" stroke="white" stroke-miterlimit="10" stroke-linecap="round" stroke-linejoin="round"/>
<path d="M2.00574 30.8652L10.1202 23.3252C10.2535 23.2014 10.4261 23.1327 10.6084 23.1327H14.8509C15.0548 23.1327 15.2508 23.0501 15.3939 22.9047L22.2772 16.0938" stroke="white" stroke-miterlimit="10" stroke-linecap="round" stroke-linejoin="round"/>
<path d="M22.2772 19.458V16.0938H18.8738" stroke="white" stroke-miterlimit="10" stroke-linecap="round" stroke-linejoin="round"/>
<path d="M34.8382 14.6396V7.13106M37.3495 9.23762L34.8146 6.69678L32.2679 9.24941" stroke="white" stroke-miterlimit="10" stroke-linecap="round" stroke-linejoin="round"/>
<path d="M34.844 17.5853C38.6521 17.5853 41.7391 14.4911 41.7391 10.6741C41.7391 6.85718 38.6521 3.76294 34.844 3.76294C31.036 3.76294 27.949 6.85718 27.949 10.6741C27.949 14.4911 31.036 17.5853 34.844 17.5853Z" stroke="white" stroke-miterlimit="10" stroke-linecap="round" stroke-linejoin="round"/>
<path d="M44.4955 10.6741C44.4955 15.4905 40.9843 19.4855 36.3869 20.2244V24.296H33.2991V20.2244C28.7037 19.4835 25.1925 15.4905 25.1925 10.6741C25.1925 5.33103 29.5134 1 34.844 1C40.1746 1 44.4955 5.33103 44.4955 10.6741Z" stroke="white" stroke-miterlimit="10" stroke-linecap="round" stroke-linejoin="round"/>
</svg>
