<svg width="35" height="32" viewBox="0 0 35 32" fill="none" xmlns="http://www.w3.org/2000/svg">
<path d="M8.19187 7.90073C8.18004 11.7009 11.2694 14.8133 15.0647 14.8272C18.8461 14.839 21.9671 11.7325 21.9848 7.9363C22.0025 4.12035 18.9013 1.00396 15.0804 1C11.2813 0.996051 8.20173 4.07885 8.19187 7.90073Z" stroke="white" stroke-miterlimit="10" stroke-linecap="round" stroke-linejoin="round"/>
<path d="M34.2005 24.0854C34.1946 20.2635 31.0992 17.1688 27.2922 17.1846C23.5186 17.1985 20.4213 20.3109 20.4174 24.0933C20.4115 27.9053 23.5048 30.9999 27.3218 30.9999C31.1446 30.9999 34.2044 27.925 34.2005 24.0854Z" stroke="white" stroke-miterlimit="10" stroke-linecap="round" stroke-linejoin="round"/>
<path d="M20.4154 24.0913C20.4174 22.0223 21.348 20.1568 22.805 18.8861C23.4418 18.2755 24.1909 17.7657 25.0505 17.3526C24.8908 17.2538 24.8002 17.1926 24.7075 17.1432C24.4473 17.0029 24.189 16.8586 23.9209 16.7302C21.8823 15.752 19.7175 15.254 17.4739 15.084C14.416 14.8508 11.3956 15.0267 8.45999 15.997C6.42733 16.6689 4.56816 17.6431 3.10922 19.2596C2.02093 20.4671 1.41961 21.8701 1.45904 23.5222C1.47678 24.3048 1.46101 25.0873 1.46298 25.8718C1.46298 26.7987 1.73308 27.0674 2.67154 27.0674C8.58617 27.0674 14.4988 27.0674 20.4135 27.0674C20.5535 27.0674 20.6934 27.0536 20.8551 27.0457C20.6185 26.2809 20.4825 25.528 20.449 24.783C20.4273 24.5557 20.4154 24.3245 20.4154 24.0913Z" stroke="white" stroke-miterlimit="10" stroke-linecap="round" stroke-linejoin="round"/>
<path d="M27.2942 19.8999C26.7914 19.9098 26.3754 20.3307 26.3656 20.8406C26.3557 21.3702 26.7796 21.8148 27.2961 21.8227C27.8068 21.8306 28.2484 21.384 28.2464 20.8604C28.2484 20.3347 27.8068 19.8901 27.2942 19.8999Z" stroke="white" stroke-miterlimit="10" stroke-linecap="round" stroke-linejoin="round"/>
<path d="M27.2882 23.2831V27.7037" stroke="white" stroke-miterlimit="10" stroke-linecap="round" stroke-linejoin="round"/>
</svg>
