<svg width="31" height="42" viewBox="0 0 31 42" fill="none" xmlns="http://www.w3.org/2000/svg">
<path d="M29.7024 18.6042C26.8932 24.9961 22.0332 30.9804 18.8447 34.5134C17.2338 36.2985 16.0491 37.4585 15.7715 37.725C15.492 37.4546 14.3073 36.2966 12.7003 34.5134C9.50989 30.9804 4.65188 24.9961 1.84068 18.6042C1.84068 18.6042 1.12322 16.7564 1.30503 14.597C1.93061 7.11366 7.75241 1 15.7051 1H15.838C23.7926 1 29.6125 7.11366 30.24 14.597C30.4199 16.7564 29.7024 18.6042 29.7024 18.6042Z" stroke="white" stroke-miterlimit="10" stroke-linecap="round" stroke-linejoin="round"/>
<path d="M29.4757 37.7251C29.4757 39.5435 23.3411 41.019 15.7716 41.019C8.20205 41.019 2.06747 39.5435 2.06747 37.7251C2.06747 36.1594 6.60878 34.8505 12.7004 34.5134C14.3073 36.2966 15.492 37.4546 15.7716 37.7251C16.0492 37.4586 17.2339 36.2985 18.8447 34.5134C24.9343 34.8505 29.4757 36.1614 29.4757 37.7251Z" stroke="white" stroke-miterlimit="10" stroke-linecap="round" stroke-linejoin="round"/>
<path d="M15.7716 26.0287C21.509 26.0287 26.1601 21.3668 26.1601 15.6159C26.1601 9.8651 21.509 5.20312 15.7716 5.20312C10.0341 5.20312 5.38303 9.8651 5.38303 15.6159C5.38303 21.3668 10.0341 26.0287 15.7716 26.0287Z" stroke="white" stroke-miterlimit="10" stroke-linecap="round" stroke-linejoin="round"/>
<path d="M21.347 12.7844H10.196V21.1182H21.347V12.7844Z" stroke="white" stroke-miterlimit="10" stroke-linecap="round" stroke-linejoin="round"/>
<path d="M21.349 12.7375L20.567 9.9707H10.978L10.196 12.7375" stroke="white" stroke-miterlimit="10" stroke-linecap="round" stroke-linejoin="round"/>
<path d="M16.4343 15.616H15.1108C14.6064 15.616 14.1978 15.2065 14.1978 14.701V9.96875H17.3472V14.701C17.3472 15.2085 16.9386 15.616 16.4343 15.616Z" stroke="white" stroke-miterlimit="10" stroke-linecap="round" stroke-linejoin="round"/>
<path d="M17.6737 19.157H19.4839" stroke="white" stroke-miterlimit="10" stroke-linecap="round" stroke-linejoin="round"/>
</svg>
