<svg width="27" height="32" viewBox="0 0 27 32" fill="none" xmlns="http://www.w3.org/2000/svg">
<path d="M23.4724 4.9658V27.3714C23.4724 28.1694 22.8262 28.8158 22.03 28.8158H20.9502V10.4458L16.5333 6.20369H3.52222V4.9658C3.52222 4.16646 4.16848 3.52002 4.96461 3.52002H22.03C22.8262 3.52002 23.4724 4.16646 23.4724 4.9658Z" stroke="white" stroke-miterlimit="10" stroke-linecap="round" stroke-linejoin="round"/>
<path d="M20.9502 10.446V30.0539C20.9502 30.8532 20.304 31.4997 19.5078 31.4997H2.44241C1.64628 31.4997 1 30.8532 1 30.0539V7.6483C1 6.8503 1.64628 6.20386 2.44241 6.20386H16.5334L20.9502 10.446Z" stroke="white" stroke-miterlimit="10" stroke-linecap="round" stroke-linejoin="round"/>
<path d="M26 2.44579V24.8514C26 25.6494 25.355 26.2972 24.5576 26.2972H23.4724V4.96584C23.4724 4.1665 22.8261 3.52006 22.03 3.52006H6.04974V2.44579C6.04974 1.64779 6.69602 1 7.49216 1H24.5576C25.355 1 26 1.64779 26 2.44579Z" stroke="white" stroke-miterlimit="10" stroke-linecap="round" stroke-linejoin="round"/>
<path d="M20.9502 10.446H16.5334V6.20386" stroke="white" stroke-miterlimit="10" stroke-linecap="round" stroke-linejoin="round"/>
</svg>
