<svg width="36" height="41" viewBox="0 0 36 41" fill="none" xmlns="http://www.w3.org/2000/svg">
<path d="M23.4966 2.12883V11.076C23.4966 11.6998 22.9928 12.2048 22.3704 12.2048H20.501C20.4136 11.6811 20.3262 11.1594 20.2367 10.6357C20.1326 10.0348 19.8724 9.84908 19.2728 9.91376C19.1105 9.93045 18.9481 9.96175 18.7878 10.0014C18.3756 10.1015 18.1841 10.3874 18.2258 10.7943C18.2716 11.2638 18.3215 11.7353 18.3715 12.2048H13.4462C12.8238 12.2048 12.32 11.6998 12.32 11.076V2.12883C12.32 1.50703 12.8238 1 13.4462 1H22.3704C22.9928 1 23.4966 1.50703 23.4966 2.12883Z" stroke="white" stroke-miterlimit="10" stroke-linecap="round" stroke-linejoin="round"/>
<path d="M8.30236 16.7491H2.01358C1.57643 16.7491 1.22046 16.3923 1.22046 15.9542V9.65069C1.22046 9.21251 1.57643 8.85571 2.01358 8.85571H8.30236C8.73951 8.85571 9.09548 9.21251 9.09548 9.65069V15.9542C9.09548 16.3944 8.7416 16.7491 8.30236 16.7491Z" stroke="white" stroke-miterlimit="10" stroke-linecap="round" stroke-linejoin="round"/>
<path d="M34.1569 12.3529H27.8681C27.431 12.3529 27.075 11.9961 27.075 11.5579V5.25445C27.075 4.81627 27.431 4.45947 27.8681 4.45947H34.1569C34.5941 4.45947 34.95 4.81627 34.95 5.25445V11.5579C34.95 11.9982 34.5941 12.3529 34.1569 12.3529Z" stroke="white" stroke-miterlimit="10" stroke-linecap="round" stroke-linejoin="round"/>
<path d="M5.15902 13.9283C5.7787 13.9283 6.28105 13.4247 6.28105 12.8036C6.28105 12.1825 5.7787 11.679 5.15902 11.679C4.53934 11.679 4.03699 12.1825 4.03699 12.8036C4.03699 13.4247 4.53934 13.9283 5.15902 13.9283Z" stroke="white" stroke-miterlimit="10" stroke-linecap="round" stroke-linejoin="round"/>
<path d="M8.30236 16.7491H2.01358C1.57643 16.7491 1.22046 16.3923 1.22046 15.9542V9.65069C1.22046 9.21251 1.57643 8.85571 2.01358 8.85571H8.30236C8.73951 8.85571 9.09548 9.21251 9.09548 9.65069V15.9542C9.09548 16.3944 8.7416 16.7491 8.30236 16.7491Z" stroke="white" stroke-miterlimit="10" stroke-linecap="round" stroke-linejoin="round"/>
<path d="M34.1569 12.3529H27.8681C27.431 12.3529 27.075 11.9961 27.075 11.5579V5.25445C27.075 4.81627 27.431 4.45947 27.8681 4.45947H34.1569C34.5941 4.45947 34.95 4.81627 34.95 5.25445V11.5579C34.95 11.9982 34.5941 12.3529 34.1569 12.3529Z" stroke="white" stroke-miterlimit="10" stroke-linecap="round" stroke-linejoin="round"/>
<path d="M5.15902 13.9283C5.7787 13.9283 6.28105 13.4247 6.28105 12.8036C6.28105 12.1825 5.7787 11.679 5.15902 11.679C4.53934 11.679 4.03699 12.1825 4.03699 12.8036C4.03699 13.4247 4.53934 13.9283 5.15902 13.9283Z" stroke="white" stroke-miterlimit="10" stroke-linecap="round" stroke-linejoin="round"/>
<path d="M31.0115 9.53178C31.6312 9.53178 32.1335 9.02825 32.1335 8.40712C32.1335 7.78599 31.6312 7.28247 31.0115 7.28247C30.3918 7.28247 29.8895 7.78599 29.8895 8.40712C29.8895 9.02825 30.3918 9.53178 31.0115 9.53178Z" stroke="white" stroke-miterlimit="10" stroke-linecap="round" stroke-linejoin="round"/>
<path d="M20.907 4.20288L17.3618 7.73959L15.3967 5.76988" stroke="white" stroke-miterlimit="10" stroke-linecap="round" stroke-linejoin="round"/>
<path d="M31.1531 33.6922C27.3123 34.339 23.5195 34.9775 19.6934 35.6222C19.9307 37.0453 20.1576 38.3953 20.3866 39.7661C24.219 39.1214 28.018 38.4829 31.8483 37.8361C31.6152 36.4443 31.3883 35.0964 31.1531 33.6922ZM30.6139 29.5587C30.2454 30.4643 29.9727 31.4178 29.7438 32.3693C29.6334 32.8346 29.725 33.3458 29.725 33.9196C26.8107 34.41 23.8755 34.9045 20.932 35.399C20.8903 35.3343 20.8404 35.2905 20.83 35.2383C20.5989 34.0031 19.9369 33.0161 19.1209 32.0918C16.7041 29.3584 14.3101 26.6062 11.9079 23.8624C11.8412 23.7852 11.785 23.6976 11.7267 23.6162C12.395 22.9381 13.3734 22.8296 14.2289 23.3554C15.2344 23.973 16.2315 24.6011 17.2245 25.2375C17.6387 25.5025 18.053 25.6485 18.5193 25.3835C18.9793 25.1227 19.0897 24.7012 19.0959 24.2046C19.1022 23.4848 19.1376 22.767 19.1771 22.0513C19.2833 20.067 18.9669 18.1119 18.7795 16.1484C18.6546 14.8318 18.5089 13.5194 18.3715 12.2048C18.3215 11.7354 18.2716 11.2638 18.2258 10.7943C18.1841 10.3875 18.3757 10.1016 18.7878 10.0014C18.9481 9.9618 19.1105 9.9305 19.2729 9.91381C19.8724 9.84913 20.1326 10.0348 20.2367 10.6358C20.3262 11.1595 20.4136 11.6811 20.5011 12.2048C20.6301 12.9936 20.7592 13.7823 20.8903 14.5689C21.1797 16.2924 21.4774 18.0138 21.7605 19.7394C21.8167 20.0795 21.952 20.3132 22.3288 20.2798C22.6473 20.2527 22.7805 19.9731 22.7097 19.5579C22.5245 18.4687 22.3392 17.3795 22.156 16.2882C22.0748 15.8 22.2934 15.487 22.7868 15.3827C22.9616 15.3451 23.1386 15.3096 23.3155 15.2992C23.7922 15.2721 24.042 15.4536 24.1274 15.9356C24.3439 17.1562 24.5458 18.379 24.7456 19.6017C24.8414 20.2026 25.0017 20.4217 25.3493 20.3737C25.7053 20.3257 25.8094 20.0941 25.7157 19.4827C25.5887 18.6711 25.4492 17.8615 25.3098 17.0519C25.2098 16.4823 25.4138 16.161 25.9717 16.0441C26.1175 16.0128 26.2673 15.994 26.4151 15.9752C26.8565 15.9189 27.1729 16.1276 27.2541 16.5803C27.4435 17.6215 27.6121 18.669 27.7911 19.7144C27.8099 19.8333 27.8348 19.9501 27.8577 20.067C27.9181 20.3612 28.1013 20.526 28.3969 20.4759C28.7071 20.4217 28.8486 20.2089 28.7966 19.8855C28.6842 19.1927 28.5801 18.4979 28.4594 17.8072C28.3469 17.1688 28.5281 16.8412 29.0776 16.7389C30.0289 16.5595 30.2871 16.6742 30.412 17.4108C30.8408 19.9126 31.33 22.4081 31.4049 24.9579C31.4528 26.5499 31.2197 28.0731 30.6139 29.5587Z" stroke="white" stroke-miterlimit="10" stroke-linecap="round" stroke-linejoin="round"/>
</svg>
