<svg width="44" height="43" viewBox="0 0 44 43" fill="none" xmlns="http://www.w3.org/2000/svg">
<path d="M42.8456 14.6528V38.4528C42.8456 39.456 42.0392 40.2697 41.0438 40.2697H15.1698C17.3875 38.6404 18.8257 36.0116 18.8257 33.0454C18.8257 28.3832 15.2707 24.551 10.7291 24.1288V2.81508C10.7291 1.81372 11.5374 1 12.531 1H28.942C28.942 1 29.9141 1.05774 31.1273 1.55571C31.7411 1.8047 32.4179 2.16736 33.0624 2.68879L39.5533 9.02535C39.5533 9.02535 41.051 10.4471 42.0266 12.1395C42.4964 12.9568 42.8456 13.8391 42.8456 14.6528Z" stroke="white" stroke-miterlimit="10" stroke-linecap="round" stroke-linejoin="round"/>
<path d="M28.222 1C28.222 1 31.3757 2.41996 31.4009 4.7709V9.52512C31.4009 9.52512 31.2155 12.116 33.759 12.116H38.2681C38.2681 12.116 42.3398 12.6772 42.8456 15.7228" stroke="white" stroke-miterlimit="10" stroke-linecap="round" stroke-linejoin="round"/>
<path d="M2.75491 27.6562C1.62448 29.1556 0.956665 31.023 0.956665 33.0456C0.956665 37.991 4.95638 42.0001 9.89032 42.0001C11.865 42.0001 13.692 41.3578 15.1699 40.2698" stroke="white" stroke-miterlimit="10" stroke-linecap="round" stroke-linejoin="round"/>
<path d="M4.62338 25.8122C6.09942 24.7296 7.92108 24.0891 9.89033 24.0891C10.1729 24.0891 10.4519 24.1017 10.7292 24.1288" stroke="white" stroke-miterlimit="10" stroke-linecap="round" stroke-linejoin="round"/>
<path d="M13.3662 29.4099L9.56091 36.7677C9.3089 37.2548 8.65728 37.3541 8.27207 36.9643L5.6152 34.2706" stroke="white" stroke-miterlimit="10" stroke-linecap="round" stroke-linejoin="round"/>
<path d="M20.4584 18.7974H37.0567" stroke="white" stroke-miterlimit="10" stroke-linecap="round" stroke-linejoin="round"/>
<path d="M35.2152 22.752H37.0567" stroke="white" stroke-miterlimit="10" stroke-linecap="round" stroke-linejoin="round"/>
<path d="M15.9115 22.752H32.3207" stroke="white" stroke-miterlimit="10" stroke-linecap="round" stroke-linejoin="round"/>
<path d="M16.2499 26.7559H37.0567" stroke="white" stroke-miterlimit="10" stroke-linecap="round" stroke-linejoin="round"/>
<path d="M18.5468 30.821H37.2385" stroke="white" stroke-miterlimit="10" stroke-linecap="round" stroke-linejoin="round"/>
<path d="M18.6872 34.6223H30.9167" stroke="white" stroke-miterlimit="10" stroke-linecap="round" stroke-linejoin="round"/>
<path d="M22.379 11.7877C22.0568 11.8437 21.7976 11.7697 21.6446 11.4738C21.5366 11.2645 21.4484 11.039 21.3854 10.8098C21.3206 10.5807 21.2 10.5013 20.9642 10.5067C20.3774 10.5211 19.787 10.4941 19.2001 10.5247C19.0669 10.532 18.8995 10.6727 18.8221 10.7972C18.6997 10.9957 18.6529 11.241 18.5485 11.4539C18.3883 11.7805 18.0499 11.9068 17.7385 11.7805C17.4271 11.6524 17.2561 11.324 17.3821 10.9884C18.0481 9.20763 18.7123 7.42321 19.4215 5.65865C19.5079 5.44214 19.8554 5.21119 20.0858 5.20758C20.318 5.20398 20.6834 5.4223 20.768 5.6334C21.479 7.4124 22.1378 9.21304 22.8128 11.0065C22.8326 11.0588 22.8416 11.1129 22.856 11.1671C22.8902 11.38 22.6778 11.7354 22.379 11.7877ZM20.7788 9.20943C20.5538 8.61763 20.3486 8.07095 20.0984 7.41239C19.8446 8.07997 19.6358 8.63026 19.4161 9.20943C19.8788 9.20943 20.2928 9.20943 20.7788 9.20943ZM24.8235 5.51431C24.5337 5.11737 24.1197 5.05603 23.8209 5.35915C23.5383 5.64783 23.5761 5.95996 23.7957 6.2721C24.2727 6.94689 24.7461 7.62349 25.2249 8.3055C25.1367 8.43361 25.0611 8.55088 24.9801 8.66274C24.4977 9.35197 24.0099 10.0358 23.5329 10.7286C23.2629 11.1183 23.3133 11.5026 23.6445 11.7228C23.9613 11.9321 24.2961 11.84 24.5787 11.4575C24.7029 11.2879 24.8217 11.1147 24.9423 10.9433C25.2915 10.4472 25.6389 9.95098 26.0079 9.42413C26.4993 10.1242 26.9476 10.7665 27.4012 11.407C27.7054 11.8346 28.0654 11.9429 28.3894 11.7119C28.726 11.472 28.7494 11.1165 28.447 10.6799C27.9592 9.97805 27.475 9.27258 26.971 8.58336C26.8197 8.37767 26.8252 8.23874 26.9764 8.03847C27.3706 7.51162 27.7396 6.96493 28.1176 6.42546C28.4848 5.90042 28.4848 5.54318 28.1194 5.29239C27.763 5.04882 27.4408 5.16609 27.0862 5.67128C26.7387 6.16384 26.3931 6.65641 26.0115 7.19949C25.5975 6.6113 25.2177 6.05739 24.8235 5.51431ZM16.7809 6.45433C16.9213 6.44892 17.0617 6.45794 17.2003 6.44531C17.6035 6.41103 17.8357 6.17286 17.8303 5.80479C17.8267 5.44935 17.5747 5.18233 17.1823 5.17691C16.203 5.16428 15.2238 5.16248 14.2446 5.17872C13.8612 5.18413 13.6092 5.471 13.6146 5.82644C13.62 6.16564 13.854 6.41464 14.2284 6.4399C14.4894 6.45794 14.754 6.44351 15.0744 6.44351C15.0744 6.64739 15.0744 6.79714 15.0744 6.94689C15.0744 8.2225 15.0744 9.49992 15.0744 10.7755C15.0744 10.873 15.0708 10.9722 15.0762 11.0696C15.0996 11.5604 15.3408 11.831 15.7386 11.8202C16.1203 11.8094 16.3633 11.5405 16.3669 11.0768C16.3741 9.73086 16.3705 8.38308 16.3705 7.0371C16.3705 6.85848 16.3705 6.67987 16.3705 6.47779C16.5361 6.46877 16.6585 6.45794 16.7809 6.45433Z" stroke="white" stroke-miterlimit="10" stroke-linecap="round" stroke-linejoin="round"/>
</svg>
