<svg width="39" height="39" viewBox="0 0 39 39" fill="none" xmlns="http://www.w3.org/2000/svg">
<path d="M9.84601 30.0854C10.2459 30.0807 10.5718 29.7525 10.5796 29.3469C10.5875 28.9162 10.2427 28.5595 9.8161 28.5564C9.39104 28.5532 9.06359 28.8799 9.06516 29.3043C9.06673 29.7272 9.42882 30.0902 9.84601 30.0854ZM20.0995 13.6192C20.1042 13.1931 19.7815 12.8649 19.3501 12.8602C18.9219 12.8554 18.5787 13.1805 18.5724 13.5971C18.5661 14.0152 18.8998 14.3482 19.3281 14.3514C19.7704 14.3561 20.0947 14.0468 20.0995 13.6192Z" stroke="white" stroke-miterlimit="10" stroke-linecap="round" stroke-linejoin="round"/>
<path d="M3.83218 10.389V1.33923" stroke="white" stroke-miterlimit="10" stroke-linecap="round" stroke-linejoin="round"/>
<path d="M6.68954 10.389V1.33923" stroke="white" stroke-miterlimit="10" stroke-linecap="round" stroke-linejoin="round"/>
<path d="M9.52171 1.33923V10.389C9.52171 12.0601 8.44804 13.4803 6.95245 13.9931V36.3721C6.95245 37.3173 6.18734 38.0826 5.2459 38.0826C4.30289 38.0826 3.53935 37.3173 3.53935 36.3721V13.9836C2.06108 13.4613 1 12.049 1 10.389V1.33923" stroke="white" stroke-miterlimit="10" stroke-linecap="round" stroke-linejoin="round"/>
<path d="M1 10.3889H9.52171" stroke="white" stroke-miterlimit="10" stroke-linecap="round" stroke-linejoin="round"/>
<path d="M34.6334 25.3751V36.4368C34.6334 37.3457 35.3686 38.0826 36.2754 38.0826C37.1822 38.0826 37.9174 37.3457 37.9174 36.4368V1C37.9174 1 32.4546 5.05226 32.2484 9.77043V21.356C32.2484 21.356 32.2153 22.033 32.4955 22.7573C32.6341 23.1139 33.3834 23.9518 34.1485 24.6177C34.4351 24.8686 34.6334 25.1731 34.6334 25.3751Z" stroke="white" stroke-miterlimit="10" stroke-linecap="round" stroke-linejoin="round"/>
<path d="M19.3359 29.6072C24.777 29.6072 29.1879 25.186 29.1879 19.7322C29.1879 14.2784 24.777 9.85718 19.3359 9.85718C13.8948 9.85718 9.48392 14.2784 9.48392 19.7322C9.48392 25.186 13.8948 29.6072 19.3359 29.6072Z" stroke="white" stroke-miterlimit="10" stroke-linecap="round" stroke-linejoin="round"/>
<path d="M11.9619 31.0574C14.0116 32.4176 16.6171 33.2319 19.4524 33.2319C23.9738 33.2319 27.9096 31.1615 29.9452 28.1066" stroke="white" stroke-miterlimit="10" stroke-linecap="round" stroke-linejoin="round"/>
<path d="M28.9424 10.2234C26.7856 7.7617 23.2922 6.16162 19.3517 6.16162C17.0847 6.16162 14.9673 6.69025 13.1647 7.60864" stroke="white" stroke-miterlimit="10" stroke-linecap="round" stroke-linejoin="round"/>
<path d="M13.1662 19.8995C13.1662 19.8995 12.8797 15.8125 17.0312 14.1099" stroke="white" stroke-miterlimit="10" stroke-linecap="round" stroke-linejoin="round"/>
</svg>
