<svg width="23" height="39" viewBox="0 0 23 39" fill="none" xmlns="http://www.w3.org/2000/svg">
<path d="M19.3665 20.6554H21.5443V12.105H13.4866M3.39991 26.1305L3.35719 30.213C3.42748 30.6634 3.18902 31.4233 3.18902 31.4233L1.36272 35.0968C1.36272 35.0968 0.406171 36.6152 1.59981 37.3502C2.79207 38.0851 3.67281 36.3637 3.67281 36.3637L5.80785 32.4746L6.32749 30.2835M7.69067 13.3705L9.72509 17.6491C10.0669 18.2543 10.5714 18.6591 10.5714 18.6591L14.6389 22.1516C15.787 23.1408 16.7022 22.515 16.7022 22.515C17.8393 21.5866 16.7022 20.8198 16.7022 20.8198C15.8449 20.6388 15.2426 19.8707 15.2426 19.8707L12.9463 17.0247C12.2006 16.2179 12.0407 15.4096 12.0407 15.4096L10.3398 10.646C9.4439 8.54745 6.82507 9.19263 6.82507 9.19263C3.68384 9.98012 3.34065 12.967 3.34065 12.967V22.0508C3.36132 23.5443 4.60871 24.8761 4.60871 24.8761L8.71754 29.0221C9.58313 29.7778 9.62309 30.6082 9.62309 30.6082L10.9518 36.401C11.4149 37.9953 12.4914 37.5325 12.4914 37.5325C12.4914 37.5325 13.6809 37.4303 13.5982 35.9727L13.2012 29.5278C13.2012 29.5278 13.1516 28.2858 12.3081 27.3076L10.3357 24.3746C10.3357 24.3746 9.33226 22.9833 9.4315 21.6239L9.42462 20.4482M8.96149 1C10.2557 1 11.306 2.30972 11.306 3.92614C11.306 5.54256 10.2571 6.85228 8.96149 6.85228C7.66723 6.85228 6.61694 5.54256 6.61694 3.92614C6.61694 2.30972 7.66723 1 8.96149 1ZM17.5499 15.2535H16.0792C15.7457 15.2535 15.4755 14.9827 15.4755 14.6484V12.105H18.1522V14.6484C18.1522 14.9827 17.8821 15.2535 17.5499 15.2535Z" stroke="white" stroke-miterlimit="10" stroke-linecap="round" stroke-linejoin="round"/>
</svg>
